<?xml version="1.0" encoding="utf-8"?>
<!-- Generator: Adobe Illustrator 26.3.1, SVG Export Plug-In . SVG Version: 6.00 Build 0)  -->
<svg version="1.1" id="Layer_1" xmlns="http://www.w3.org/2000/svg" xmlns:xlink="http://www.w3.org/1999/xlink" x="0px" y="0px"
	 viewBox="0 0 300 120" style="enable-background:new 0 0 300 120;" xml:space="preserve">
<g id="EZqBna.tif">
	<g>
		<path d="M258,16.1c21,9.5,30.9,33.7,23.8,55.6c-0.8,2.5-1.7,5-2.8,7.5c-3.9,9.2-1.4,15.4,8.2,17.2c4,0.8,6.5,2.8,5.8,6.8
			c-0.7,4.1-3.9,5.1-7.8,4.8c-15.4-1.2-24.6-17.9-17.4-32.1c3.9-7.7,6.2-15.4,4.7-24c-3.4-18.7-20.8-30.9-39.3-27.6
			c-18.4,3.3-30.5,20.8-27.3,39.6c3.1,17.9,20.7,30,39.3,27c2.1-0.3,4.8-0.8,6.5,0.2c1.6,0.9,3.5,4.2,2.9,5.3
			c-1.2,2.3-3.7,5.1-6,5.6c-15.5,3.2-29.4-0.7-41-11.6c-15-14.1-18.4-36.8-8.4-54.7c10.2-18.3,31.3-27.3,51.5-21.9
			C253.3,14.2,255.7,15,258,16.1z"/>
		<path d="M142.1,12c25.2,0.1,45.6,20.6,45.5,45.7c-0.1,25-21,45.5-46,45.2c-25.2-0.3-45.4-20.8-45.2-46
			C96.6,32.2,117.2,11.9,142.1,12z M141.7,91.1c19,0.1,34.2-14.8,34.2-33.6c0-18.5-15-33.6-33.6-33.8c-18.8-0.2-34.1,14.9-34.1,33.7
			C108.1,76,123,91,141.7,91.1z"/>
		<path d="M78.9,23.7c-4.3,0-8.1,0-11.8,0c-4,0-6.9-1.6-7-5.8c-0.1-4.1,2.8-5.9,6.8-6c5.7-0.1,11.4-0.1,17.1,0
			c4.3,0.1,6.7,2.4,6.6,6.8c0,14,0.4,28.1-0.2,42C89.6,79.2,76.1,95.5,58.3,101c-17.6,5.4-37.3-0.7-48.7-15
			c-2.6-3.3-4.5-6.6-0.5-9.9c3.9-3.2,6.8-0.8,9.6,2.5c10,11.6,24.4,15.6,38,10.6c13.6-5,22.1-17.3,22.2-32.5
			C79,45.9,78.9,35.1,78.9,23.7z"/>
	</g>
</g>
</svg>
